<svg width="208" height="161" viewBox="0 0 208 161" fill="none" xmlns="http://www.w3.org/2000/svg">
<path d="M26.75 56.5312L29.8125 67H37.5938L23.0312 21.5H16.375L1.5625 67H9.375L12.4688 56.5312H26.75ZM14.375 50.0938L19.6875 32.0938L24.9062 50.0938H14.375Z" fill="#0BC5EA"/>
<path d="M51.1562 49.6562H58.875C61.1667 49.6562 63.2708 49.3229 65.1875 48.6562C67.125 47.9896 68.7917 47.0417 70.1875 45.8125C71.5833 44.6042 72.6667 43.1562 73.4375 41.4688C74.2083 39.7604 74.5938 37.8542 74.5938 35.75C74.5938 33.5625 74.2083 31.5938 73.4375 29.8438C72.6667 28.0938 71.5833 26.6042 70.1875 25.375C68.7917 24.1458 67.125 23.1979 65.1875 22.5312C63.2708 21.8646 61.1667 21.5208 58.875 21.5H43.6562V67H51.1562V49.6562ZM51.1562 43.5312V27.625H58.875C60.1458 27.6458 61.2812 27.8542 62.2812 28.25C63.3021 28.6458 64.1667 29.2083 64.875 29.9375C65.5833 30.6667 66.1146 31.5312 66.4688 32.5312C66.8438 33.5104 67.0312 34.6042 67.0312 35.8125C67.0312 36.9167 66.8438 37.9375 66.4688 38.875C66.1146 39.8125 65.5833 40.625 64.875 41.3125C64.1667 42 63.3021 42.5417 62.2812 42.9375C61.2812 43.3125 60.1458 43.5104 58.875 43.5312H51.1562Z" fill="#0BC5EA"/>
<path d="M82.6562 21.5V27.7188H92.1562V60.8125H82.6562V67H109.469V60.8125H99.75V27.7188H109.469V21.5H82.6562Z" fill="#0BC5EA"/>
<path d="M110.272 148.248C100.864 148.248 92.224 146.856 84.352 144.072C76.576 141.288 70.288 137.208 65.488 131.832C60.688 126.36 58.048 119.64 57.568 111.672C57.376 108.408 57.904 104.808 59.152 100.872C60.4 96.936 62.128 93.048 64.336 89.208C66.64 85.272 69.328 81.768 72.4 78.696C75.568 75.528 78.928 73.128 82.48 71.496C82.768 71.304 83.2 71.16 83.776 71.064C84.448 70.968 84.928 70.92 85.216 70.92C85.792 70.92 86.08 71.064 86.08 71.352C86.08 71.832 85.36 72.6 83.92 73.656C79.888 76.824 76.576 80.472 73.984 84.6C71.296 88.728 69.28 93.144 67.936 97.848C66.592 102.552 65.92 107.304 65.92 112.104C65.92 117.768 67.12 122.664 69.52 126.792C72.016 130.824 75.328 134.136 79.456 136.728C83.584 139.416 88.288 141.384 93.568 142.632C98.848 143.88 104.368 144.504 110.128 144.504C116.56 144.504 122.896 143.784 129.136 142.344C135.472 140.904 141.232 138.84 146.416 136.152C154.384 131.928 160.672 126.696 165.28 120.456C169.984 114.216 172.336 108.024 172.336 101.88C172.336 98.616 171.616 95.496 170.176 92.52C168.832 89.544 166.624 86.856 163.552 84.456C161.248 82.632 158.416 80.904 155.056 79.272C151.792 77.64 148.288 76.056 144.544 74.52C140.896 72.984 137.296 71.448 133.744 69.912C130.192 68.28 127.072 66.552 124.384 64.728C120.544 62.136 117.712 59.352 115.888 56.376C114.16 53.4 113.296 50.424 113.296 47.448C113.296 43.896 114.304 40.44 116.32 37.08C118.432 33.72 121.264 30.696 124.816 28.008C128.464 25.224 132.544 23.064 137.056 21.528C140.992 20.184 145.264 19.128 149.872 18.36C154.576 17.592 159.184 17.208 163.696 17.208C167.44 17.208 170.992 17.496 174.352 18.072C177.808 18.552 180.832 19.464 183.424 20.808C186.688 22.344 189.184 24.408 190.912 27C192.64 29.496 193.504 32.136 193.504 34.92C193.504 38.76 191.776 42.12 188.32 45C187.072 45.96 185.68 46.872 184.144 47.736C182.608 48.504 180.784 49.176 178.672 49.752C178.288 49.848 177.856 49.896 177.376 49.896C176.224 49.896 175.648 49.56 175.648 48.888C175.648 48.504 175.936 48.12 176.512 47.736C177.184 47.256 178.144 46.968 179.392 46.872C182.272 46.488 184.432 45.384 185.872 43.56C187.408 41.736 188.176 39.624 188.176 37.224C188.176 34.728 187.312 32.28 185.584 29.88C183.952 27.384 181.408 25.32 177.952 23.688C174.496 21.96 170.08 21.096 164.704 21.096C161.632 21.096 158.224 21.432 154.48 22.104C150.832 22.776 146.848 23.88 142.528 25.416C137.248 27.24 132.832 29.928 129.28 33.48C125.824 37.032 124.096 40.824 124.096 44.856C124.096 47.352 124.912 49.896 126.544 52.488C128.272 54.984 131.008 57.384 134.752 59.688C137.92 61.608 141.52 63.528 145.552 65.448C149.584 67.272 153.664 69.144 157.792 71.064C161.92 72.888 165.664 74.856 169.024 76.968C174.304 80.232 178.096 83.736 180.4 87.48C182.704 91.224 183.856 95.064 183.856 99C183.856 103.608 182.464 108.264 179.68 112.968C176.992 117.576 173.44 121.944 169.024 126.072C164.608 130.104 159.76 133.704 154.48 136.872C148.336 140.52 141.376 143.304 133.6 145.224C125.92 147.24 118.144 148.248 110.272 148.248Z" fill="#ED64A6"/>
</svg>
