<svg width="358" height="156" viewBox="0 0 358 156" fill="none" xmlns="http://www.w3.org/2000/svg">
<path d="M26.75 56.5312L29.8125 67H37.5938L23.0312 21.5H16.375L1.5625 67H9.375L12.4688 56.5312H26.75ZM14.375 50.0938L19.6875 32.0938L24.9062 50.0938H14.375Z" fill="#0BC5EA"/>
<path d="M51.1562 49.6562H58.875C61.1667 49.6562 63.2708 49.3229 65.1875 48.6562C67.125 47.9896 68.7917 47.0417 70.1875 45.8125C71.5833 44.6042 72.6667 43.1562 73.4375 41.4688C74.2083 39.7604 74.5938 37.8542 74.5938 35.75C74.5938 33.5625 74.2083 31.5938 73.4375 29.8438C72.6667 28.0938 71.5833 26.6042 70.1875 25.375C68.7917 24.1458 67.125 23.1979 65.1875 22.5312C63.2708 21.8646 61.1667 21.5208 58.875 21.5H43.6562V67H51.1562V49.6562ZM51.1562 43.5312V27.625H58.875C60.1458 27.6458 61.2812 27.8542 62.2812 28.25C63.3021 28.6458 64.1667 29.2083 64.875 29.9375C65.5833 30.6667 66.1146 31.5312 66.4688 32.5312C66.8438 33.5104 67.0312 34.6042 67.0312 35.8125C67.0312 36.9167 66.8438 37.9375 66.4688 38.875C66.1146 39.8125 65.5833 40.625 64.875 41.3125C64.1667 42 63.3021 42.5417 62.2812 42.9375C61.2812 43.3125 60.1458 43.5104 58.875 43.5312H51.1562Z" fill="#0BC5EA"/>
<path d="M82.6562 21.5V27.7188H92.1562V60.8125H82.6562V67H109.469V60.8125H99.75V27.7188H109.469V21.5H82.6562Z" fill="#0BC5EA"/>
<path d="M110.272 148.248C100.864 148.248 92.224 146.856 84.352 144.072C76.576 141.288 70.288 137.208 65.488 131.832C60.688 126.36 58.048 119.64 57.568 111.672C57.376 108.408 57.904 104.808 59.152 100.872C60.4 96.936 62.128 93.048 64.336 89.208C66.64 85.272 69.328 81.768 72.4 78.696C75.568 75.528 78.928 73.128 82.48 71.496C82.768 71.304 83.2 71.16 83.776 71.064C84.448 70.968 84.928 70.92 85.216 70.92C85.792 70.92 86.08 71.064 86.08 71.352C86.08 71.832 85.36 72.6 83.92 73.656C79.888 76.824 76.576 80.472 73.984 84.6C71.296 88.728 69.28 93.144 67.936 97.848C66.592 102.552 65.92 107.304 65.92 112.104C65.92 117.768 67.12 122.664 69.52 126.792C72.016 130.824 75.328 134.136 79.456 136.728C83.584 139.416 88.288 141.384 93.568 142.632C98.848 143.88 104.368 144.504 110.128 144.504C116.56 144.504 122.896 143.784 129.136 142.344C135.472 140.904 141.232 138.84 146.416 136.152C154.384 131.928 160.672 126.696 165.28 120.456C169.984 114.216 172.336 108.024 172.336 101.88C172.336 98.616 171.616 95.496 170.176 92.52C168.832 89.544 166.624 86.856 163.552 84.456C161.248 82.632 158.416 80.904 155.056 79.272C151.792 77.64 148.288 76.056 144.544 74.52C140.896 72.984 137.296 71.448 133.744 69.912C130.192 68.28 127.072 66.552 124.384 64.728C120.544 62.136 117.712 59.352 115.888 56.376C114.16 53.4 113.296 50.424 113.296 47.448C113.296 43.896 114.304 40.44 116.32 37.08C118.432 33.72 121.264 30.696 124.816 28.008C128.464 25.224 132.544 23.064 137.056 21.528C140.992 20.184 145.264 19.128 149.872 18.36C154.576 17.592 159.184 17.208 163.696 17.208C167.44 17.208 170.992 17.496 174.352 18.072C177.808 18.552 180.832 19.464 183.424 20.808C186.688 22.344 189.184 24.408 190.912 27C192.64 29.496 193.504 32.136 193.504 34.92C193.504 38.76 191.776 42.12 188.32 45C187.072 45.96 185.68 46.872 184.144 47.736C182.608 48.504 180.784 49.176 178.672 49.752C178.288 49.848 177.856 49.896 177.376 49.896C176.224 49.896 175.648 49.56 175.648 48.888C175.648 48.504 175.936 48.12 176.512 47.736C177.184 47.256 178.144 46.968 179.392 46.872C182.272 46.488 184.432 45.384 185.872 43.56C187.408 41.736 188.176 39.624 188.176 37.224C188.176 34.728 187.312 32.28 185.584 29.88C183.952 27.384 181.408 25.32 177.952 23.688C174.496 21.96 170.08 21.096 164.704 21.096C161.632 21.096 158.224 21.432 154.48 22.104C150.832 22.776 146.848 23.88 142.528 25.416C137.248 27.24 132.832 29.928 129.28 33.48C125.824 37.032 124.096 40.824 124.096 44.856C124.096 47.352 124.912 49.896 126.544 52.488C128.272 54.984 131.008 57.384 134.752 59.688C137.92 61.608 141.52 63.528 145.552 65.448C149.584 67.272 153.664 69.144 157.792 71.064C161.92 72.888 165.664 74.856 169.024 76.968C174.304 80.232 178.096 83.736 180.4 87.48C182.704 91.224 183.856 95.064 183.856 99C183.856 103.608 182.464 108.264 179.68 112.968C176.992 117.576 173.44 121.944 169.024 126.072C164.608 130.104 159.76 133.704 154.48 136.872C148.336 140.52 141.376 143.304 133.6 145.224C125.92 147.24 118.144 148.248 110.272 148.248Z" fill="#ED64A6"/>
<path d="M203.12 135C200.432 135 198.032 134.088 195.92 132.264C193.808 130.344 192.752 127.368 192.752 123.336C192.752 120.168 193.328 116.28 194.48 111.672C195.728 106.968 197.216 102.12 198.944 97.128C200.768 92.04 202.544 87.432 204.272 83.304H196.64C195.968 83.304 195.632 82.824 195.632 81.864C195.632 81.384 195.728 80.952 195.92 80.568C196.208 80.184 196.592 79.992 197.072 79.992H205.712C207.344 76.344 209.072 72.792 210.896 69.336C212.72 65.88 214.496 62.616 216.224 59.544C218.432 55.704 220.784 52.824 223.28 50.904C225.776 48.984 227.936 48.024 229.76 48.024C231.2 48.024 232.4 48.6 233.36 49.752C234.32 50.808 234.8 52.44 234.8 54.648C234.8 55.992 234.512 57.864 233.936 60.264C233.36 62.568 232.448 65.016 231.2 67.608C230.528 68.952 229.568 70.872 228.32 73.368C227.168 75.864 226.016 78.072 224.864 79.992H231.776C232.448 79.992 232.784 80.472 232.784 81.432C232.784 81.816 232.688 82.248 232.496 82.728C232.304 83.112 232.016 83.304 231.632 83.304H223.136C220.736 87.432 218 91.464 214.928 95.4C211.856 99.336 208.208 103.272 203.984 107.208C203.696 108.072 203.312 109.32 202.832 110.952C202.448 112.584 202.064 114.264 201.68 115.992C201.392 117.624 201.104 119.016 200.816 120.168C200.624 121.32 200.528 121.896 200.528 121.896C200.24 123.144 200.096 124.296 200.096 125.352C200.096 127.368 200.576 128.856 201.536 129.816C202.496 130.68 203.6 131.112 204.848 131.112C205.616 131.112 206.384 131.016 207.152 130.824C207.92 130.536 208.784 130.056 209.744 129.384C213.104 126.984 216.032 123.72 218.528 119.592C221.12 115.464 223.376 111.48 225.296 107.64C225.872 106.488 226.448 105.912 227.024 105.912C227.408 105.912 227.6 106.2 227.6 106.776C227.6 107.064 227.456 107.592 227.168 108.36C225.056 112.776 223.28 116.328 221.84 119.016C220.4 121.704 219.008 123.96 217.664 125.784C216.32 127.512 214.736 129.24 212.912 130.968C211.568 132.312 210.032 133.32 208.304 133.992C206.576 134.664 204.848 135 203.12 135ZM214.496 79.992H221.84C223.184 77.496 224.432 75.048 225.584 72.648C226.832 70.248 227.936 67.848 228.896 65.448C229.568 63.912 230.144 62.184 230.624 60.264C231.104 58.344 231.344 56.856 231.344 55.8C231.344 54.36 231.008 53.64 230.336 53.64C229.856 53.64 229.136 54.072 228.176 54.936C227.312 55.704 226.208 57.048 224.864 58.968C223.136 61.368 221.408 64.488 219.68 68.328C218.048 72.072 216.32 75.96 214.496 79.992ZM205.136 102.6C207.92 99.72 210.512 96.648 212.912 93.384C215.408 90.12 217.712 86.76 219.824 83.304H213.056C211.52 86.856 210.08 90.312 208.736 93.672C207.392 97.032 206.192 100.008 205.136 102.6Z" fill="#ED64A6"/>
<path d="M231.976 135C228.328 135 225.64 133.8 223.912 131.4C222.184 128.904 221.32 125.88 221.32 122.328C221.32 118.008 222.328 113.496 224.344 108.792C226.264 104.376 228.712 100.344 231.688 96.696C234.664 93.048 237.88 90.12 241.336 87.912C244.792 85.608 248.152 84.456 251.416 84.456C255.064 84.456 257.752 85.656 259.48 88.056C261.208 90.456 262.072 93.48 262.072 97.128C262.072 101.544 261.064 106.056 259.048 110.664C257.896 113.256 256.264 116.136 254.152 119.304C252.04 122.376 249.64 125.208 246.952 127.8C247.528 128.856 248.344 129.768 249.4 130.536C250.456 131.208 251.896 131.544 253.72 131.544C256.024 131.544 258.184 130.584 260.2 128.664C262.312 126.744 264.232 124.44 265.96 121.752C267.688 118.968 269.224 116.184 270.568 113.4C271.912 110.616 273.016 108.36 273.88 106.632C274.168 106.056 274.648 105.768 275.32 105.768C275.704 105.768 275.992 105.96 276.184 106.344C276.376 106.632 276.328 107.112 276.04 107.784C275.464 109.224 274.504 111.384 273.16 114.264C271.816 117.048 270.184 119.976 268.264 123.048C266.344 126.024 264.136 128.568 261.64 130.68C259.144 132.792 256.36 133.848 253.288 133.848C251.176 133.848 249.352 133.512 247.816 132.84C246.28 132.072 245.032 131.16 244.072 130.104C242.056 131.64 240.04 132.84 238.024 133.704C236.008 134.568 233.992 135 231.976 135ZM234.136 131.832C236.728 131.832 239.512 130.584 242.488 128.088C241.72 126.936 241.144 125.736 240.76 124.488C240.376 123.24 240.184 122.088 240.184 121.032C240.184 119.304 240.568 117.816 241.336 116.568C242.2 115.32 243.496 114.696 245.224 114.696C246.472 114.696 247.48 115.176 248.248 116.136C249.112 117 249.544 118.008 249.544 119.16C249.544 119.448 249.496 119.736 249.4 120.024C249.4 120.216 249.352 120.456 249.256 120.744C250.888 118.536 252.424 115.944 253.864 112.968C257.032 106.152 258.616 100.536 258.616 96.12C258.616 93.912 258.184 92.184 257.32 90.936C256.456 89.688 255.16 89.064 253.432 89.064C251.416 89.064 249.208 89.928 246.808 91.656C244.504 93.384 242.248 95.688 240.04 98.568C237.928 101.448 236.056 104.664 234.424 108.216C232.888 111.48 231.64 114.648 230.68 117.72C229.816 120.696 229.384 123.288 229.384 125.496C229.384 127.416 229.768 128.952 230.536 130.104C231.304 131.256 232.504 131.832 234.136 131.832Z" fill="#ED64A6"/>
<path d="M290.448 135.232C288.624 135.232 286.8 134.512 284.976 133.072C283.152 131.536 282.24 129.088 282.24 125.728C282.24 123.136 282.864 120.16 284.112 116.8C285.264 113.536 286.8 110.368 288.72 107.296C290.736 104.224 292.176 101.728 293.04 99.808C293.328 99.04 293.472 98.368 293.472 97.792C293.472 96.064 292.368 94.816 290.16 94.048C288.048 93.28 285.264 92.848 281.808 92.752L280.08 97.504C279.024 100.576 277.536 104.176 275.616 108.304C273.792 112.432 271.728 116.416 269.424 120.256C267.216 124.096 264.912 127.168 262.512 129.472C262.32 129.664 262.08 129.76 261.792 129.76C261.408 129.76 261.168 129.52 261.072 129.04C260.88 128.56 261.072 127.984 261.648 127.312C265.392 122.32 268.752 116.8 271.728 110.752C274.704 104.608 277.2 98.368 279.216 92.032C281.328 85.696 282.864 79.84 283.824 74.464C284.112 72.928 284.64 71.824 285.408 71.152C286.176 70.384 286.992 70 287.856 70C289.104 70 290.256 70.624 291.312 71.872C292.368 73.024 292.896 74.704 292.896 76.912C292.896 77.296 292.848 77.728 292.752 78.208C292.752 78.688 292.704 79.168 292.608 79.648C292.224 81.664 291.072 83.584 289.152 85.408C287.328 87.136 285.84 88.432 284.688 89.296C285.648 89.392 286.656 89.488 287.712 89.584C288.768 89.584 289.92 89.584 291.168 89.584C295.68 89.584 300.144 89.296 304.56 88.72C304.752 89.296 304.848 89.728 304.848 90.016C304.848 91.264 304.464 92.848 303.696 94.768C303.024 96.688 302.304 98.416 301.536 99.952C301.152 100.816 300.384 102.4 299.232 104.704C298.08 106.912 296.832 109.456 295.488 112.336C294.144 115.12 292.992 117.904 292.032 120.688C291.168 123.376 290.736 125.68 290.736 127.6C290.736 130.096 291.696 131.344 293.616 131.344C295.056 131.344 296.64 130.432 298.368 128.608C300.096 126.688 301.776 124.384 303.408 121.696C305.136 118.912 306.672 116.224 308.016 113.632C309.456 110.944 310.56 108.832 311.328 107.296C311.712 106.336 312.24 105.856 312.912 105.856C313.296 105.856 313.488 106.192 313.488 106.864C313.488 107.248 313.344 107.824 313.056 108.592C312 110.8 310.752 113.296 309.312 116.08C307.872 118.864 306.24 121.6 304.416 124.288C302.688 126.976 300.768 129.328 298.656 131.344C296.64 133.264 294.432 134.512 292.032 135.088C291.744 135.184 291.216 135.232 290.448 135.232Z" fill="#ED64A6"/>
<path d="M321.288 135.576C317.736 135.576 314.52 134.424 311.64 132.12C308.856 129.816 307.464 126.312 307.464 121.608C307.464 117.288 308.52 112.68 310.632 107.784C312.744 102.792 315.432 98.424 318.696 94.68C321.48 91.416 324.6 88.728 328.056 86.616C331.512 84.504 334.776 83.448 337.848 83.448C339.96 83.448 341.784 84.024 343.32 85.176C344.952 86.424 345.768 88.2 345.768 90.504C345.768 92.904 344.856 95.544 343.032 98.424C341.208 101.304 338.616 103.992 335.256 106.488C333.816 107.544 331.992 108.552 329.784 109.512C327.576 110.472 325.368 111.288 323.16 111.96C320.952 112.536 319.128 112.824 317.688 112.824C317.208 113.976 316.728 115.512 316.248 117.432C315.864 119.352 315.672 121.32 315.672 123.336C315.672 125.736 316.152 127.896 317.112 129.816C318.072 131.736 319.848 132.696 322.44 132.696C325.608 132.696 328.488 131.784 331.08 129.96C333.672 128.136 335.976 125.88 337.992 123.192C340.008 120.408 341.688 117.624 343.032 114.84C344.472 112.056 345.624 109.704 346.488 107.784C347.064 106.44 347.832 105.768 348.792 105.768C349.272 105.768 349.512 106.008 349.512 106.488C349.512 106.872 349.368 107.352 349.08 107.928C347.736 110.808 346.296 113.88 344.76 117.144C343.224 120.312 341.4 123.336 339.288 126.216C337.176 129 334.632 131.256 331.656 132.984C328.776 134.712 325.32 135.576 321.288 135.576ZM318.696 110.232C320.04 110.232 322.296 109.752 325.464 108.792C328.632 107.736 331.512 106.104 334.104 103.896C336.6 101.688 338.52 99.288 339.864 96.696C341.208 94.008 341.88 91.752 341.88 89.928C341.88 87.816 341.112 86.76 339.576 86.76C338.424 86.76 336.84 87.528 334.824 89.064C332.808 90.6 330.312 93.192 327.336 96.84C325.512 99.144 323.784 101.64 322.152 104.328C320.52 107.016 319.368 108.984 318.696 110.232Z" fill="#ED64A6"/>
</svg>
